#!OML:ASF E:\Style4\Style4.ASF
:FULLY-SPECIFIED
:DEGREES
2353
root -1.35523 16.8923 -1.5376 10.7873 23.8169 2.91506
lowerback 19.1098 7.36336 0.778136
upperback 9.50781 9.79424 -2.58312
thorax 0.306899 5.07547 -4.91294
lowerneck 0.674134 -10.0054 -4.73604
upperneck -12.6786 -12.2564 14.6956
head -2.58711 -6.54549 5.40158
rclavicle -4.25399e-014 -1.11319e-014
rhumerus 62.588 9.26919 -23.0376
rradius 72.5449
rwrist -82.9095
rhand -5.28997 14.9938
rfingers 7.12502
rthumb 20.5148 -13.9423
lclavicle -4.25399e-014 -1.11319e-014
lhumerus 48.5546 -4.56068 7.81676
lradius 82.6971
lwrist 79.6069
lhand 7.98259 28.3726
lfingers 7.12502
lthumb 33.2105 55.3282
rfemur -38.108 -16.4664 23.5745
rtibia 55.4724
rfoot -28.2621 -19.9628
rtoes -5.94343
lfemur -42.4854 -4.61796 -16.1444
ltibia 48.0786
lfoot -14.221 -6.8137
ltoes -14.9709
2354
root -1.33032 16.9017 -1.55147 10.7741 23.7012 2.96501
lowerback 19.0653 7.43089 0.916806
upperback 9.51577 9.90717 -2.37112
thorax 0.330315 5.1295 -4.7768
lowerneck 0.69048 -10.1222 -4.63274
upperneck -12.7466 -12.4489 14.23
head -2.6342 -6.62859 5.25037
rclavicle 1.48691e-013 -1.00983e-013
rhumerus 62.6519 9.42954 -23.621
rradius 72.3266
rwrist -82.8995
rhand -5.5272 15.0111
rfingers 7.12502
rthumb 20.2868 -13.9494
lclavicle 1.48691e-013 -1.00983e-013
lhumerus 48.5936 -4.2667 7.24077
lradius 82.6072
lwrist 79.736
lhand 8.40218 28.3751
lfingers 7.12502
lthumb 33.6093 55.2447
rfemur -38.021 -16.3416 23.3801
rtibia 55.348
rfoot -28.1416 -20.0043
rtoes -6.13985
lfemur -42.3465 -4.54605 -16.3254
ltibia 47.9215
lfoot -14.1448 -6.76487
ltoes -15.3359
2355
root -1.30397 16.9111 -1.56485 10.738 23.5404 2.95553
lowerback 19.0608 7.46132 1.16881
upperback 9.48552 9.98768 -2.22583
thorax 0.321812 5.17257 -4.77454
lowerneck 0.720677 -10.2086 -4.50336
upperneck -12.8007 -12.5947 13.8236
head -2.6819 -6.69172 5.11433
rclavicle 1.67774e-013 -7.23576e-014
rhumerus 62.6793 9.6152 -24.2944
rradius 72.1886
rwrist -82.9985
rhand -5.90737 15.0192
rfingers 7.12502
rthumb 19.9214 -13.9798
lclavicle 1.67774e-013 -7.23576e-014
lhumerus 48.548 -4.01659 6.54599
lradius 82.5094
lwrist 79.8635
lhand 8.37122 28.3994
lfingers 7.12502
lthumb 33.5799 55.2754
rfemur -37.9291 -16.1921 23.2361
rtibia 55.2066
rfoot -28.0347 -19.9585
rtoes -5.89314
lfemur -42.2014 -4.43559 -16.4505
ltibia 47.7441
lfoot -14.0847 -6.73645
ltoes -15.4519
2356
root -1.27773 16.9215 -1.57741 10.7305 23.3713 3.0089
lowerback 18.9843 7.48946 1.27157
upperback 9.48454 10.0429 -2.04063
thorax 0.345243 5.19699 -4.63424
lowerneck 0.800249 -10.2659 -4.53699
upperneck -12.8539 -12.7007 13.5266
head -2.72184 -6.73402 5.03842
rclavicle -7.63333e-014 7.95139e-016
rhumerus 62.7844 9.81427 -24.825
rradius 72.0756
rwrist -83.1774
rhand -6.19011 15.069
rfingers 7.12502
rthumb 19.6496 -13.9579
lclavicle -7.63333e-014 7.95139e-016
lhumerus 48.4495 -3.75006 5.84545
lradius 82.3948
lwrist 79.99
lhand 8.42259 28.4264
lfingers 7.12502
lthumb 33.6287 55.2918
rfemur -37.8455 -16.1056 23.0462
rtibia 55.0556
rfoot -27.8392 -19.969
rtoes -6.30999
lfemur -42.0526 -4.37997 -16.6273
ltibia 47.5626
lfoot -14.0339 -6.6232
ltoes -15.391
2357
root -1.25108 16.9338 -1.59068 10.7418 23.2415 3.18371
lowerback 18.8151 7.54455 1.16307
upperback 9.58113 10.1039 -1.74568
thorax 0.462845 5.21656 -4.24673
lowerneck 0.837978 -10.3534 -4.69222
upperneck -12.9474 -12.856 13.1828
head -2.75788 -6.79314 4.96568
rclavicle 1.43125e-014 -3.02153e-014
rhumerus 62.9884 9.94725 -25.1599
rradius 71.8975
rwrist -83.3268
rhand -6.11473 15.0612
rfingers 7.12502
rthumb 19.7221 -13.9583
lclavicle 1.43125e-014 -3.02153e-014
lhumerus 48.4164 -3.4319 5.43402
lradius 82.154
lwrist 80.0214
lhand 8.37442 28.3487
lfingers 7.12502
lthumb 33.5829 55.2241
rfemur -37.717 -16.0758 22.7112
rtibia 54.914
rfoot -27.7234 -19.8983
rtoes -6.42386
lfemur -41.8613 -4.46624 -16.8766
ltibia 47.345
lfoot -13.8849 -6.63369
ltoes -13.8696
2358
root -1.21917 16.9463 -1.60486 10.7304 23.1345 3.28094
lowerback 18.7745 7.52682 1.38729
upperback 9.59273 10.1188 -1.60124
thorax 0.507626 5.22853 -4.21098
lowerneck 0.907841 -10.4518 -4.76984
upperneck -12.9786 -13.0168 12.9516
head -2.7773 -6.86263 4.91359
rclavicle -1.65389e-013 7.15625e-014
rhumerus 63.0219 10.1046 -25.8175
rradius 71.7135
rwrist -83.3448
rhand -6.0263 15.116
rfingers 7.12502
rthumb 19.8071 -13.8948
lclavicle -1.65389e-013 7.15625e-014
lhumerus 48.3912 -3.19375 4.85743
lradius 82.016
lwrist 80.068
lhand 8.32171 28.2104
lfingers 7.12502
lthumb 33.5329 55.0966
rfemur -37.5707 -16.0935 22.4457
rtibia 54.7546
rfoot -27.5668 -19.8418
rtoes -6.55541
lfemur -41.6782 -4.52317 -17.0786
ltibia 47.1259
lfoot -13.7214 -6.68533
ltoes -12.5355
